/* XPM */
static char * geppetto_xpm[] = {
"48 48 107 2",
"  	c None",
". 	c #6A6581",
"+ 	c #3E3950",
"@ 	c #39344C",
"# 	c #342F46",
"$ 	c #4A4147",
"% 	c #67574A",
"& 	c #78644B",
"* 	c #866E4C",
"= 	c #816A4B",
"- 	c #73604A",
"; 	c #584B48",
"> 	c #393346",
", 	c #524648",
"' 	c #A7884E",
") 	c #DEB252",
"! 	c #F9C753",
"~ 	c #F5C452",
"{ 	c #C8A24F",
"] 	c #8D754C",
"^ 	c #4C4147",
"/ 	c #423947",
"( 	c #B5924E",
"_ 	c #F7C553",
": 	c #F7C653",
"< 	c #BC984F",
"[ 	c #574A49",
"} 	c #544848",
"| 	c #ECBE52",
"1 	c #B8944F",
"2 	c #8C734C",
"3 	c #77634A",
"4 	c #88704B",
"5 	c #9D804D",
"6 	c #F2C252",
"7 	c #91774C",
"8 	c #483F48",
"9 	c #E7B852",
"0 	c #F3C353",
"a 	c #967B4C",
"b 	c #3D3647",
"c 	c #3E3647",
"d 	c #D4AB50",
"e 	c #383247",
"f 	c #D0A851",
"g 	c #645449",
"h 	c #363146",
"i 	c #80694B",
"j 	c #826B4C",
"k 	c #705E4A",
"l 	c #63534A",
"m 	c #373146",
"n 	c #E0B351",
"o 	c #B7944F",
"p 	c #625249",
"q 	c #5B4D48",
"r 	c #957A4C",
"s 	c #DFB251",
"t 	c #BE9A4F",
"u 	c #B18F4F",
"v 	c #CFA750",
"w 	c #9B7E4C",
"x 	c #8E744C",
"y 	c #353046",
"z 	c #413847",
"A 	c #3A3447",
"B 	c #463E47",
"C 	c #977B4D",
"D 	c #CDA650",
"E 	c #9C7F4D",
"F 	c #BD984F",
"G 	c #423A47",
"H 	c #EABC52",
"I 	c #987C4C",
"J 	c #E6B852",
"K 	c #655549",
"L 	c #65544A",
"M 	c #3A3346",
"N 	c #EBBC52",
"O 	c #C29D4F",
"P 	c #92784D",
"Q 	c #846C4C",
"R 	c #E5B852",
"S 	c #7A644A",
"T 	c #5D4E48",
"U 	c #AB8B4D",
"V 	c #4F4447",
"W 	c #6E5C49",
"X 	c #EDBE52",
"Y 	c #C49E50",
"Z 	c #90764C",
"` 	c #7B664B",
" .	c #6F5D4A",
"..	c #7F694B",
"+.	c #A98A4D",
"@.	c #DCB051",
"#.	c #4D4348",
"$.	c #EBBD52",
"%.	c #5F5049",
"&.	c #B3914E",
"*.	c #E8BA52",
"=.	c #EFC052",
"-.	c #74614A",
";.	c #534748",
">.	c #725E4A",
",.	c #866E4B",
"'.	c #363046",
". . . . . . . . . . . . . . . . . . . . . . . . . . . . . . . . . . . . . . . . . . . . . . . . ",
". . . . . . . . . . . . . . . . . . . . . . . . . . . . . . . . . . . . . . . . . . . . . . . . ",
". . . . . . . . . . . . . . . . . . . . . . . . . . . . . . . . . . . . . . . . . . . . . . . . ",
". . . + @ @ @ @ @ @ @ @ @ @ @ @ @ @ @ @ @ @ @ @ @ @ @ @ @ @ @ @ @ @ @ @ @ @ @ @ @ @ @ @ + . . . ",
". . . @ # # # # # # # # # # # # # # # # # # # # # # # # # # # # # # # # # # # # # # # # @ . . . ",
". . . @ # # # # # # # # # # # # # # # # # # # # # # # # # # # # # # # # # # # # # # # # @ . . . ",
". . . @ # # # # # # # # # # # # # # # # # # # # # # # # # # # # # # # # # # # # # # # # @ . . . ",
". . . @ # # # # # # # # # # # # # # # # # # # # # # # # # # # # # # # # # # # # # # # # @ . . . ",
". . . @ # # # # # # # # # # # # # # # # # # # # # # # # # # # # # # # # # # # # # # # # @ . . . ",
". . . @ # # # # # # # # # # # # # # # # # # # # # # # # # # # # # # # # # # # # # # # # @ . . . ",
". . . @ # # # # # # # # # # # # # # # # # # # # # # # # # # # # # # # # # # # # # # # # @ . . . ",
". . . @ # # # # # # # # # # # # # # # # # # $ % & * = - ; > # # # # # # # # # # # # # # @ . . . ",
". . . @ # # # # # # # # # # # # # # # , ' ) ! ! ! ! ! ! ! ~ { ] ^ # # # # # # # # # # # @ . . . ",
". . . @ # # # # # # # # # # # # # / ( _ ! ! ! ! ! ! ! ! ! ! ! ! : < [ # # # # # # # # # @ . . . ",
". . . @ # # # # # # # # # # # # } ) ! ! ! | 1 2 3 - 4 5 < 6 ! ! ! ! 7 # # # # # # # # # @ . . . ",
". . . @ # # # # # # # # # # # 8 9 ! ! 0 a b # # # # # # # c & d ! ! 7 # # # # # # # # # @ . . . ",
". . . @ # # # # # # # # # # e f ! ! | g # # # # # # # # # # # h i | 7 # # # # # # # # # @ . . . ",
". . . @ # # # # # # # # # # j ! ! ! k # # # # # # # # # # # # # # $ l # # # # # # # # # @ . . . ",
". . . @ # # # # # # # # # m n ! ! o # # # # # # # # # # # # # # # # # # # # # # # # # # @ . . . ",
". . . @ # # # # # # # # # p ! ! ! q # # # # # # # # # # # # # # # # # # # # # # # # # # @ . . . ",
". . . @ # # # # # # # # # r ! ! s # # # # # # # # # # # # # # # # # # # # # # # # # # # @ . . . ",
". . . @ # # # # # # # # # t ! ! u # # # # # # # # # # # # # # # # # # # # # # # # # # # @ . . . ",
". . . @ # # # # # # # # # v ! ! w # # # # # # # # # # # # # # # # # # # # # # # # # # # @ . . . ",
". . . @ # # # # # # # # # n ! ! x # # # # # # # y z z z z z z z z z A # # # # # # # # # @ . . . ",
". . . @ # # # # # # # # # ) ! ! 7 # # # # # # # B ! ! ! ! ! ! ! ! ! C # # # # # # # # # @ . . . ",
". . . @ # # # # # # # # # D ! ! E # # # # # # # B ! ! ! ! ! ! ! ! ! C # # # # # # # # # @ . . . ",
". . . @ # # # # # # # # # F ! ! o # # # # # # # G { { { { { { H ! ! C # # # # # # # # # @ . . . ",
". . . @ # # # # # # # # # I ! ! J # # # # # # # # # # # # # # < ! ! C # # # # # # # # # @ . . . ",
". . . @ # # # # # # # # # K ! ! ! L # # # # # # # # # # # # # < ! ! C # # # # # # # # # @ . . . ",
". . . @ # # # # # # # # # M N ! ! O # # # # # # # # # # # # # < ! ! C # # # # # # # # # @ . . . ",
". . . @ # # # # # # # # # # P ! ! ! Q # # # # # # # # # # # # < ! ! C # # # # # # # # # @ . . . ",
". . . @ # # # # # # # # # # c R ! ! 0 S # # # # # # # # # # # < ! ! C # # # # # # # # # @ . . . ",
". . . @ # # # # # # # # # # # T 6 ! ! ! U 8 # # # # # # # # V f ! ! C # # # # # # # # # @ . . . ",
". . . @ # # # # # # # # # # # # W X ! ! ! 0 Y Z `  ...P +.@.! ! ! ! C # # # # # # # # # @ . . . ",
". . . @ # # # # # # # # # # # # # #.{ ! ! ! ! ! ! ! ! ! ! ! ! ! $.' , # # # # # # # # # @ . . . ",
". . . @ # # # # # # # # # # # # # # # %.&.*.! ! ! ! ! ! ! =.F -.M # # # # # # # # # # # @ . . . ",
". . . @ # # # # # # # # # # # # # # # # # # ;.>.i 2 ,.3 ; '.# # # # # # # # # # # # # # @ . . . ",
". . . @ # # # # # # # # # # # # # # # # # # # # # # # # # # # # # # # # # # # # # # # # @ . . . ",
". . . @ # # # # # # # # # # # # # # # # # # # # # # # # # # # # # # # # # # # # # # # # @ . . . ",
". . . @ # # # # # # # # # # # # # # # # # # # # # # # # # # # # # # # # # # # # # # # # @ . . . ",
". . . @ # # # # # # # # # # # # # # # # # # # # # # # # # # # # # # # # # # # # # # # # @ . . . ",
". . . @ # # # # # # # # # # # # # # # # # # # # # # # # # # # # # # # # # # # # # # # # @ . . . ",
". . . @ # # # # # # # # # # # # # # # # # # # # # # # # # # # # # # # # # # # # # # # # @ . . . ",
". . . @ # # # # # # # # # # # # # # # # # # # # # # # # # # # # # # # # # # # # # # # # @ . . . ",
". . . + @ @ @ @ @ @ @ @ @ @ @ @ @ @ @ @ @ @ @ @ @ @ @ @ @ @ @ @ @ @ @ @ @ @ @ @ @ @ @ @ + . . . ",
". . . . . . . . . . . . . . . . . . . . . . . . . . . . . . . . . . . . . . . . . . . . . . . . ",
". . . . . . . . . . . . . . . . . . . . . . . . . . . . . . . . . . . . . . . . . . . . . . . . ",
". . . . . . . . . . . . . . . . . . . . . . . . . . . . . . . . . . . . . . . . . . . . . . . . "};
