/* XPM */
static char * geppetto_xpm[] = {
"48 48 360 2",
"  	c None",
". 	c #7968AA",
"+ 	c #7B6AAC",
"@ 	c #7A69AA",
"# 	c #7C6BAD",
"$ 	c #7B6AAD",
"% 	c #7666A9",
"& 	c #7766A9",
"* 	c #7666A8",
"= 	c #4C408B",
"- 	c #524491",
"; 	c #514491",
"> 	c #514392",
", 	c #514391",
"' 	c #504390",
") 	c #4F4390",
"! 	c #504290",
"~ 	c #50418F",
"{ 	c #4F4190",
"] 	c #4F4290",
"^ 	c #4E4190",
"/ 	c #4E408F",
"( 	c #4D408F",
"_ 	c #4D3F8F",
": 	c #4D3F8E",
"< 	c #473A87",
"[ 	c #6F5FA4",
"} 	c #7968AC",
"| 	c #7764A9",
"1 	c #7B67AB",
"2 	c #7A67AB",
"3 	c #7A66AA",
"4 	c #7965AA",
"5 	c #7964A9",
"6 	c #7864A9",
"7 	c #7863A9",
"8 	c #7762A8",
"9 	c #7662A8",
"0 	c #7760A7",
"a 	c #755FA7",
"b 	c #745FA6",
"c 	c #755EA6",
"d 	c #745DA6",
"e 	c #735CA5",
"f 	c #725BA5",
"g 	c #725AA5",
"h 	c #725AA4",
"i 	c #7159A4",
"j 	c #7058A4",
"k 	c #7158A3",
"l 	c #6F57A3",
"m 	c #7057A3",
"n 	c #6F56A2",
"o 	c #6C54A1",
"p 	c #4A3D8D",
"q 	c #6E5EA4",
"r 	c #7968AB",
"s 	c #7F6BAD",
"t 	c #7E69AC",
"u 	c #7D69AC",
"v 	c #7D67AB",
"w 	c #7C67AB",
"x 	c #7B65AA",
"y 	c #7A65AA",
"z 	c #7B63A9",
"A 	c #7963A9",
"B 	c #7862A8",
"C 	c #7961A8",
"D 	c #7860A7",
"E 	c #775FA7",
"F 	c #765EA6",
"G 	c #765DA6",
"H 	c #755CA5",
"I 	c #745BA5",
"J 	c #745AA4",
"K 	c #735AA4",
"L 	c #7258A3",
"M 	c #4B3C8D",
"N 	c #6E54A1",
"O 	c #4A3C8D",
"P 	c #7156A2",
"Q 	c #6D54A1",
"R 	c #7359A3",
"S 	c #6F55A1",
"T 	c #6D53A1",
"U 	c #6D52A0",
"V 	c #7055A2",
"W 	c #6F54A1",
"X 	c #6E53A0",
"Y 	c #7055A1",
"Z 	c #7056A2",
"` 	c #6D53A0",
" .	c #907CB7",
"..	c #BBAED3",
"+.	c #CEC5DF",
"@.	c #D0C7E0",
"#.	c #C7BEDB",
"$.	c #A898C6",
"%.	c #9481B9",
"&.	c #9481BA",
"*.	c #9480B9",
"=.	c #947FB8",
"-.	c #7F67AC",
";.	c #4A3B8D",
">.	c #856FB0",
",.	c #E3DEED",
"'.	c #FFFFFF",
").	c #B3A4CD",
"!.	c #6E52A0",
"~.	c #E1DCEC",
"{.	c #FCFCFD",
"].	c #E2DCEC",
"^.	c #9A86BD",
"/.	c #6F52A0",
"(.	c #6B51A0",
"_.	c #745BA4",
":.	c #9683BB",
"<.	c #ECE8F3",
"[.	c #B0A1CB",
"}.	c #A696C5",
"|.	c #BDB2D4",
"1.	c #FDFDFE",
"2.	c #775DA6",
"3.	c #7155A2",
"4.	c #6E53A1",
"5.	c #6B509F",
"6.	c #7661A8",
"7.	c #7964AA",
"8.	c #7A63A9",
"9.	c #B8ABD1",
"0.	c #F7F6FA",
"a.	c #8D78B5",
"b.	c #684B9C",
"c.	c #AF9FCB",
"d.	c #937DB9",
"e.	c #6B4F9F",
"f.	c #705CA5",
"g.	c #745EA6",
"h.	c #755FA6",
"i.	c #765FA6",
"j.	c #765FA7",
"k.	c #775EA6",
"l.	c #C1B5D6",
"m.	c #F3F1F7",
"n.	c #7D65AA",
"o.	c #7157A3",
"p.	c #8B76B3",
"q.	c #9B89BE",
"r.	c #6B4E9E",
"s.	c #493A8D",
"t.	c #705BA5",
"u.	c #735DA5",
"v.	c #725CA5",
"w.	c #715BA5",
"x.	c #715BA4",
"y.	c #715AA4",
"z.	c #705AA3",
"A.	c #7059A3",
"B.	c #7159A3",
"C.	c #725AA3",
"D.	c #C0B5D6",
"E.	c #8B75B3",
"F.	c #9785BC",
"G.	c #664B9C",
"H.	c #684E9D",
"I.	c #493B8D",
"J.	c #705BA4",
"K.	c #6F58A3",
"L.	c #6E57A2",
"M.	c #6E56A2",
"N.	c #6D55A1",
"O.	c #6A519F",
"P.	c #B8ACD1",
"Q.	c #F6F5F9",
"R.	c #8C77B4",
"S.	c #6C509F",
"T.	c #6A509F",
"U.	c #674C9D",
"V.	c #A798C7",
"W.	c #907EB8",
"X.	c #64499B",
"Y.	c #684C9D",
"Z.	c #644B9C",
"`.	c #6F5AA4",
" +	c #6F59A3",
".+	c #6D56A2",
"++	c #6A53A0",
"@+	c #6952A0",
"#+	c #67509F",
"$+	c #8E7CB8",
"%+	c #B6A9D0",
"&+	c #AFA1CB",
"*+	c #BEB3D5",
"=+	c #674B9C",
"-+	c #483A8C",
";+	c #4F418F",
">+	c #6E59A4",
",+	c #6F58A2",
"'+	c #6B55A1",
")+	c #6954A0",
"!+	c #69519F",
"~+	c #68519F",
"{+	c #67519F",
"]+	c #664F9E",
"^+	c #6E58A3",
"/+	c #DFDAEB",
"(+	c #B4A7CF",
"_+	c #64489B",
":+	c #664C9D",
"<+	c #48398C",
"[+	c #705AA4",
"}+	c #6953A0",
"|+	c #6753A0",
"1+	c #644D9D",
"2+	c #806DAE",
"3+	c #F4F3F8",
"4+	c #F6F4F9",
"5+	c #C0B6D7",
"6+	c #62499B",
"7+	c #63499B",
"8+	c #634A9B",
"9+	c #63489B",
"0+	c #4E418F",
"a+	c #6955A1",
"b+	c #6853A0",
"c+	c #654F9E",
"d+	c #67509E",
"e+	c #AC9FCA",
"f+	c #FCFBFD",
"g+	c #C2B9D9",
"h+	c #B8ADD2",
"i+	c #B4A8CF",
"j+	c #A394C4",
"k+	c #806CAE",
"l+	c #5D4398",
"m+	c #62489B",
"n+	c #61489A",
"o+	c #61479A",
"p+	c #5E4699",
"q+	c #47398C",
"r+	c #6954A1",
"s+	c #654E9D",
"t+	c #F0EEF6",
"u+	c #CAC1DE",
"v+	c #624A9C",
"w+	c #5F4598",
"x+	c #5F4799",
"y+	c #60479A",
"z+	c #5E4599",
"A+	c #654D9D",
"B+	c #7560A7",
"C+	c #FDFCFD",
"D+	c #F8F7FB",
"E+	c #CEC6E0",
"F+	c #B7ABD0",
"G+	c #A092C3",
"H+	c #8C7AB5",
"I+	c #7962A9",
"J+	c #644C9C",
"K+	c #604699",
"L+	c #5D4599",
"M+	c #4D418F",
"N+	c #6752A0",
"O+	c #E7E3F0",
"P+	c #C9C1DD",
"Q+	c #6951A0",
"R+	c #5F4599",
"S+	c #5F4699",
"T+	c #634C9C",
"U+	c #8775B3",
"V+	c #E2DFED",
"W+	c #C6BDDA",
"X+	c #573D94",
"Y+	c #5C4599",
"Z+	c #61499B",
"`+	c #5C4397",
" @	c #604799",
".@	c #8F7EB8",
"+@	c #BBB1D4",
"@@	c #D6CFE4",
"#@	c #FBFAFC",
"$@	c #F0EDF5",
"%@	c #5B4297",
"&@	c #5D4498",
"*@	c #47388C",
"=@	c #65519F",
"-@	c #624A9B",
";@	c #5B4196",
">@	c #5D4397",
",@	c #5E4598",
"'@	c #5E4498",
")@	c #5A4096",
"!@	c #583E94",
"~@	c #4E328E",
"{@	c #C1B7D7",
"]@	c #EFEDF5",
"^@	c #5C4398",
"/@	c #4E408E",
"(@	c #65529F",
"_@	c #634B9C",
":@	c #D3CBE2",
"<@	c #B1A5CD",
"[@	c #9180BA",
"}@	c #7C68AC",
"|@	c #745FA7",
"1@	c #9280B9",
"2@	c #EFECF5",
"3@	c #5A3F95",
"4@	c #4D408E",
"5@	c #7C66AB",
"6@	c #C6BCDB",
"7@	c #563B93",
"8@	c #5B4398",
"9@	c #9585BC",
"0@	c #D8D2E6",
"a@	c #6B53A0",
"b@	c #4C3F8E",
"c@	c #68509F",
"d@	c #806CAF",
"e@	c #A294C4",
"f@	c #BEB4D5",
"g@	c #D0C9E1",
"h@	c #DBD4E7",
"i@	c #DBD5E8",
"j@	c #CAC3DD",
"k@	c #AEA2CD",
"l@	c #816DAE",
"m@	c #654C9C",
"n@	c #5B4197",
"o@	c #47378B",
"p@	c #5C4297",
"q@	c #5B4096",
"r@	c #593E95",
"s@	c #583E95",
"t@	c #583F95",
"u@	c #5D4297",
"v@	c #47388B",
"w@	c #644F9E",
"x@	c #644E9D",
"y@	c #5B4097",
"z@	c #624C9D",
"A@	c #634D9D",
"B@	c #634D9C",
"C@	c #614B9B",
"D@	c #624B9B",
"E@	c #614A9B",
"F@	c #61499A",
"G@	c #60499A",
"H@	c #60489A",
"I@	c #5F479A",
"J@	c #594096",
"K@	c #473B88",
"L@	c #4B3D8E",
"M@	c #4A3C8E",
"N@	c #4A3B8C",
"O@	c #493B8C",
"P@	c #493A8C",
"Q@	c #423585",
"R@	c #6E5EA3",
"S@	c #7362A7",
". + + + + + + + + + + + + + + + + + + + + + + + + + + + + + + + + + + + + + + + + + + + + + + @ ",
"+ # # # # # # # # # # # # # # # # # # # # # # # # # # # # # # # # # # # # # # # # # # # # # # + ",
"+ # # # # # # # # # # # # # # # # # # # # # # # # # # # # # # # # # # # # # # # # # # # # # # + ",
"+ # # # # # # # # # # # # # # # # # # # # # # # # # # # # # # # # # # # # # # # # # # # # # # + ",
"+ # # # # # # # # # # # # # # # # # # # # # # # # # # # # # # # # # # # # # # # # # # # # # # + ",
"+ # # # # # # # # # # # # # # # # # # # # # # # # # # # # # # # # # # # # # # # # # # # # # # + ",
"+ # # # # # $ % & & % % % % % % % % % % % % % % % % % % % % % % % % % % % % % % * + # # # # # + ",
"+ # # # # # % = - - ; > , , , ' ' ' ) ) ' ! ~ { ] ] { ^ ^ ^ ^ ^ / ( ( _ : : : : < [ } # # # # + ",
"+ # # # # # & - | 1 2 3 4 4 5 6 7 8 8 9 0 0 a b c c d e e f g h i i j k l m n o p q r # # # # + ",
"+ # # # # # & - 1 s t u u v w w x x y z z A B C C D E E F G G H H I J K K L L n M q r # # # # + ",
"+ # # # # # % ; 2 t u u v w w x x y z z A B C C D E E F G G H H I J K K L L L N O q r # # # # + ",
"+ # # # # # % > 3 u u v w w x x y z z A B C C D E E F G G H H I J K K L L L P N O q r # # # # + ",
"+ # # # # # % , 4 u v w w x x y z z A B C C D E E F G G H H I J K K L L L P P Q O q r # # # # + ",
"+ # # # # # % , 4 v w w x x y z z A B C C D E E F G G R S T U U S V W W X Y Z T O q r # # # # + ",
"+ # # # # # % , 5 w w x x y z z A B C C D E E F G H `  ...+.@.#.$.%.&.*.=.-.V U ;.q r # # # # + ",
"+ # # # # # % ' 6 w x x y z z A B C C D E E F G G >.,.'.'.'.'.'.'.'.'.'.'.).!.U ;.q r # # # # + ",
"+ # # # # # % ' 7 x x y z z A B C C D E E F G G z ~.'.'.'.'.'.'.'.'.'.{.].^./.(.O q r # # # # + ",
"+ # # # # # % ' 8 x y z z A B C C D E E F G G _.:.'.'.'.<.[.}.|.1.'.'.'.2.3.4.5.;.q r # # # # + ",
"+ # # # # # % ) 6.7.8.z 8.B C C D E E F G G H L 9.'.'.0.a.N V b.c.'.'.'.d.e.!.5.;.q r # # # # + ",
"+ # # # # # % ] f.g.h.b g.i.j.j.E E k.G G H H m l.'.'.m.n.o.P X p.'.'.'.q.r.!.e.s.q r # # # # + ",
"+ # # # # # % ! t.u.v.w.x.x.y.y.z.A.B.C.h _.I P D.'.'.m.n.P P 4.E.'.'.'.F.G.H.G.I.q r # # # # + ",
"+ # # # # # % ! J.e w.x.x.y.y.A.K.K.l L.M.M.N.O.P.'.'.Q.R.S.T.U.V.'.'.'.W.X.Y.Z.I.q r # # # # + ",
"+ # # # # # % ~ `.w.x.x.y.y.A. +K.l L..+o ++@+#+$+'.'.'.,.%+&+*+0.'.'.'.o =+U.Z.-+q r # # # # + ",
"+ # # # # # % ;+>+x.x.y.y.A.,+.+'+)+!+~+{+{+#+]+^+/+'.'.'.'.'.'.'.'.'.(+_+U.:+X.<+q r # # # # + ",
"+ # # # # # % ;+^+[+A.^+'+++}+|+|+~+~+{+{+#+]+]+1+2+3+'.'.'.'.'.1.4+5+Z.6+7+8+9+<+q r # # # # + ",
"+ # # # # # % 0+a+'+a+)+++}+b+|+~+~+{+{+#+]+]+c+d+e+f+'.f+g+h+i+j+k+l+m+n+n+o+p+q+q r # # # # + ",
"+ # # # # # % 0+b+a+r+++}+b+|+~+~+{+{+#+]+]+c+s+v.t+'.'.u+v+p+w+x+n+6+n+n+n+y+z+q+q r # # # # + ",
"+ # # # # # % 0+|+a+++}+b+|+~+~+{+{+#+]+]+c+s+A+B+C+'.'.D+E+F+G+H+I+[+J+y+y+K+L+q+q r # # # # + ",
"+ # # # # # % M+N+++}+b+|+~+~+{+{+#+]+]+c+s+A+A+ +O+'.'.'.'.'.'.'.'.Q.P+Q+R+S+L+<+q r # # # # + ",
"+ # # # # # % 0+~+}+b+|+~+~+{+{+#+]+]+c+s+A+A+1+T+U+V+'.'.'.'.'.'.'.'.'.W+X+p+Y+<+q r # # # # + ",
"+ # # # # # % 0+{+b+|+~+~+{+{+#+]+]+c+s+A+A+1+T+J+Z+`+ @7 .@V.+@@@#@'.'.$@%@p+&@*@q r # # # # + ",
"+ # # # # # % 0+=@|+~+~+{+{+#+]+]+c+s+A+A+1+T+J+-@;@>@,@'@`+)@!@~@{@'.'.]@6+'@^@q+q r # # # # + ",
"+ # # # # # % /@(@~+~+{+{+#+]+]+c+s+A+A+1+T+J+_@[+:@<@[@}@a |@8 1@t+'.'.2@3@'@^@q+q r # # # # + ",
"+ # # # # # % 4@]+~+{+{+#+]+]+c+s+A+A+1+T+J+_@_@5@'.'.'.'.'.'.'.'.'.'.'.6@7@'@8@q+q r # # # # + ",
"+ # # # # # % : ]+{+{+#+]+]+c+s+A+A+1+T+J+_@_@n+9@'.'.'.'.'.'.'.'.'.'.0@a@`+&@%@*@q r # # # # + ",
"+ # # # # # % b@c+{+#+]+]+c+s+A+A+1+T+J+_@_@8+-@c@d@e@f@g@h@i@0@j@k@l@m@>@&@>@n@o@q r # # # # + ",
"+ # # # # # % b@c+#+]+]+c+s+A+A+1+T+J+_@_@8+-@6+6+n+,@p@q@r@s@t@t@q@>@'@&@>@u@n@v@q r # # # # + ",
"+ # # # # # % b@w@]+]+c+s+A+A+1+T+J+_@_@8+-@6+6+n+n+n+y+K+S+p+p+R+'@'@&@>@u@u@n@v@q r # # # # + ",
"+ # # # # # % b@x@]+c+s+A+A+1+T+J+_@_@8+-@6+6+n+n+n+y+K+S+p+p+R+'@'@&@>@u@u@p@y@o@q r # # # # + ",
"+ # # # # # % : z@A@B@T+T+T+C@D@E@E@F@G@H@H@y+I@x+S+z+L+L+Y+&@^@^@8@%@n@n@n@y@J@o@q r # # # # + ",
"+ # # # # # * K@L@M@O O O ;.I.I.I.;.N@O@O@P@-+<+<+<+<+<+<+<+*@q+q+q+*@o@v@v@o@o@Q@R@r # # # # + ",
"+ # # # # # + [ q q q q q q q q q q q q q q q q q q q q q q q q q q q q q q q q R@S@r # # # # + ",
"+ # # # # # # } r r r r r r r r r r r r r r r r r r r r r r r r r r r r r r r r r r + # # # # + ",
"+ # # # # # # # # # # # # # # # # # # # # # # # # # # # # # # # # # # # # # # # # # # # # # # + ",
"+ # # # # # # # # # # # # # # # # # # # # # # # # # # # # # # # # # # # # # # # # # # # # # # + ",
"+ # # # # # # # # # # # # # # # # # # # # # # # # # # # # # # # # # # # # # # # # # # # # # # + ",
"+ # # # # # # # # # # # # # # # # # # # # # # # # # # # # # # # # # # # # # # # # # # # # # # + ",
". + + + + + + + + + + + + + + + + + + + + + + + + + + + + + + + + + + + + + + + + + + + + + + @ "};
